# xmcd
#
# Track frame offsets:
#	150
#	13063
#	25934
#	37750
#	49510
#	64162
#	75805
#	89204
#	101270
#	114294
#	127690
#	140785
#	153425
#	168341
#	182525
#
# Disc length: 2607 seconds
#
# Revision: 0
# Processed by: cddbd v1.5PL3 Copyright (c) Steve Scherf et al.
# Submitted via: audiograbber 1.82.02
#
DISCID=ad0a2d0f
DTITLE=Pete Gage - Out of hours
DYEAR=1997
DGENRE=
TTITLE0=St. James Infirmary
TTITLE1=Worried Life Blues
TTITLE2=Nobody's Fault But Mine
TTITLE3=Ruthie Lee
TTITLE4=Why Don't You Do Right
TTITLE5=Since I Fell For You
TTITLE6=That Lucky Old Sun
TTITLE7=Junco Partner
TTITLE8=Sittin On Top Of The World
TTITLE9=Blues Before Sunrise
TTITLE10=Born In The City
TTITLE11=Polack Town
TTITLE12=Losin' Hand
TTITLE13=Trouble In Mind
TTITLE14=Evening
EXTD=
EXTT0=
EXTT1=
EXTT2=
EXTT3=
EXTT4=
EXTT5=
EXTT6=
EXTT7=
EXTT8=
EXTT9=
EXTT10=
EXTT11=
EXTT12=
EXTT13=
EXTT14=
PLAYORDER=
